<svg xmlns="http://www.w3.org/2000/svg" xmlns:xlink="http://www.w3.org/1999/xlink" viewBox="0 0 156.5 75"><defs><path id="g" d="M0 0c.06.107 0 .14-.048.14C-.082.14-.2.12-.4.14-.98.204-1.8.47-2.19.636c-.082.033-.153.06-.178.06-.023 0-.06-.025-.06-.072 0-.034.024-.057.083-.09C-1.92.24-.825-.424-.743-.47c.2-.118.27-.153.33-.153.034 0 .06.023.116.106z"/><path id="c" d="M0 0c-.034 0-.06-.023-.034-.084l1.036-3.18c.058-.178.116-.178.175 0l1.12 3.18c.01.05.01.084-.05.084H0zm-1.646 2.597c-.213.588-.448 1.037-.99 1.11-.094.01-.26.022-.342.022-.058 0-.105.022-.105.07 0 .07.07.093.225.093.553 0 1.2-.033 1.33-.033.13 0 .635.033.918.033.105 0 .177-.02.177-.094 0-.048-.035-.07-.118-.07H-.67c-.2 0-.448-.108-.448-.345 0-.213.06-.49.165-.79L-.246.513C-.22.455-.185.42-.127.42h2.53c.06 0 .083.02.106.068l1.094 2.896c.07.19 0 .295-.07.32-.048.012-.082.035-.082.082 0 .072.128.072.353.084.812.02 1.672.02 1.848.02.13 0 .235-.02.235-.093 0-.06-.046-.07-.118-.07-.117 0-.293-.012-.47-.07-.248-.072-.59-.262-1.012-1.31C3.57.558 1.72-4.304 1.544-4.75c-.14-.365-.188-.424-.26-.424-.07 0-.116.072-.257.46z"/><path id="h" d="M0 0c-1.142-1.027-1.424-2.363-1.424-3.482 0-.79.27-2.168 1.318-3.217C.6-7.4 1.67-7.956 3.484-7.956c.47 0 1.13.036 1.706.142.448.08.825.153 1.202.175.13.012.15.06.15.13 0 .097-.033.237-.057.66-.023.39-.023 1.034-.035 1.212-.013.178-.036.25-.106.25-.082 0-.095-.084-.095-.25 0-.46-.19-.94-.495-1.2-.412-.35-1.317-.67-2.354-.67-1.563 0-2.294.46-2.705.856-.86.824-1.06 1.873-1.06 3.074 0 2.25 1.73 4.31 4.25 4.31.882 0 1.576-.104 2.047-.59.247-.26.4-.776.436-.99.024-.13.047-.18.118-.18.058 0 .082.085.082.18 0 .085-.142 1.106-.26 1.51-.07.22-.093.243-.306.337-.47.188-1.365.272-2.118.272C2.12 1.272.93.834 0 0z"/><path id="f" d="M0 0c0-.908 0-2.104.012-2.506 0-.13.034-.19.14-.236.096-.047.53-.084.766-.084 1.4 0 2.744.166 3.85 1.334.482.506 1.13 1.47 1.13 2.965 0 1.084-.33 2.215-.94 2.812-.695.693-1.708 1.096-2.803 1.096-1.39 0-1.85-.247-2.002-.47-.094-.13-.117-.6-.128-.896C.013 3.794.002 2.71.002 1.46zm-.99 2.262c0 1.13 0 2.06-.06 2.555-.045.34-.104.6-.34.646-.106.025-.247.05-.354.05-.07 0-.094.034-.094.07 0 .07.06.093.188.093.353 0 1.095-.033 1.153-.033.117 0 1.6.14 2.613.14 2 0 3.06-.827 3.567-1.355.658-.693 1.27-1.836 1.27-3.32 0-1.398-.553-2.375-1.14-2.992C4.41-3.33 2.256-3.222 1.092-3.222c-.708 0-1.45.037-1.59.037-.06 0-.802-.037-1.33-.037-.13 0-.19.023-.19.096 0 .047.05.07.096.07.104 0 .305.012.398.035.39.08.482.265.507.667.023.38.023.707.023 2.54z"/><path id="a" d="M0 0c0-1.836 0-2.168-.023-2.544-.023-.4-.117-.59-.506-.67-.093-.024-.292-.038-.4-.038-.046 0-.093-.02-.093-.07 0-.07.06-.096.188-.096.53 0 1.27.037 1.33.037.082 0 2.425 0 2.695-.013.224-.012.412-.037.506-.06.06-.012.105-.057.165-.057.036 0 .047.045.047.104 0 .082-.058.224-.093.555-.013.116-.035.634-.06.775-.012.06-.035.132-.082.132-.07 0-.094-.06-.094-.154 0-.083-.012-.285-.07-.426-.084-.188-.2-.328-.837-.396-.2-.024-1.48-.036-1.61-.036-.048 0-.072.037-.072.12V.406c0 .084.013.12.072.12.15 0 1.6 0 1.87-.024.283-.023.448-.05.554-.164.083-.093.13-.15.176-.15.036 0 .06.022.06.093 0 .064-.06.268-.093.658-.024.24-.048.67-.048.75 0 .1 0 .228-.083.228-.06 0-.083-.047-.083-.107 0-.118 0-.235-.047-.388-.048-.162-.153-.36-.612-.408-.318-.037-1.483-.06-1.683-.06-.06 0-.084.034-.084.08v1.038c0 .396-.01 1.764 0 2.014.036.81.213.965 1.366.965.307 0 .823 0 1.13-.13.308-.13.447-.367.53-.846.024-.13.047-.178.106-.178.07 0 .07.094.07.178 0 .092-.095.893-.152 1.137-.083.31-.178.31-.638.31-1.776 0-2.564-.072-2.907-.072-.06 0-.8.035-1.152.035-.13 0-.187-.023-.187-.094 0-.036.024-.073.094-.073.106 0 .248-.023.354-.047.235-.047.295-.303.342-.645.06-.492.06-1.424.06-2.553z"/><path id="e" d="M0 0c0 1.73.047 2.482.26 2.695.187.188.494.27 1.41.27.625 0 1.143-.01 1.425-.354.153-.188.27-.483.307-.704.012-.094.035-.152.106-.152.06 0 .07.047.07.178 0 .127-.083.834-.177 1.174-.082.27-.116.318-.74.318-1.695 0-2.473-.072-3.155-.072-.105 0-.8.035-1.153.035-.13 0-.188-.023-.188-.094 0-.035.023-.072.095-.072.105 0 .246-.022.353-.046.235-.047.293-.303.34-.645.06-.493.06-1.425.06-2.554v-2.072c0-1.836 0-2.168-.023-2.544-.024-.4-.118-.59-.506-.67-.095-.024-.295-.038-.4-.038-.047 0-.095-.02-.095-.07 0-.07.06-.096.188-.096.53 0 1.27.037 1.33.037s.917-.037 1.27-.037c.13 0 .19.025.19.096 0 .05-.048.07-.095.07-.083 0-.248.014-.39.037-.34.058-.435.26-.458.67-.023.376-.023.708-.023 2.544z"/><path id="b" d="M0 0c.023.967.137 1.27.457 1.363.225.06.484.07.588.07.06 0 .092.023.092.072 0 .07-.068.094-.207.094-.674 0-1.14-.036-1.248-.036s-.602.035-1.13.035c-.12 0-.19-.01-.19-.095 0-.05.035-.072.094-.072.096 0 .31-.01.486-.07.29-.08.35-.42.35-1.492l.014-6.743c0-.462.035-.59.13-.59s.296.258.413.377c.175.2 1.93 2.096 3.74 4.037C4.758-1.8 6.04-.366 6.416.026l-.13-5.98c-.01-.764-.097-1.025-.458-1.12-.21-.046-.482-.06-.578-.06-.083 0-.097-.033-.097-.082 0-.07.096-.084.236-.084.528 0 1.095.036 1.226.036s.518-.037 1-.037c.13 0 .21.013.21.083 0 .05-.046.082-.126.082-.06 0-.143 0-.285.037-.39.082-.438.344-.438 1.047L6.954.846c0 .777-.023.834-.105.834-.093 0-.23-.128-.86-.75C5.863.81 4.166-.918 2.922-2.26 1.555-3.73.222-5.215-.15-5.64z"/><path id="i" d="M0 0c0-2.576 1.472-3.874 3.437-3.874 1.86 0 3.58 1.52 3.58 4.347 0 3.424-2.19 4.035-3.25 4.035C1.647 4.508 0 2.74 0 0zm-1.12.332c0 2.117 1.344 4.623 4.568 4.623 2.837 0 4.697-2.18 4.697-4.814 0-2.74-1.978-4.413-4.626-4.413-3.248 0-4.64 2.697-4.64 4.605z"/><path id="d" d="M0 0c0-1.836 0-2.168-.023-2.544-.023-.4-.117-.59-.51-.67-.094-.024-.293-.038-.398-.038-.046 0-.095-.02-.095-.07 0-.07.06-.096.188-.096.53 0 1.248.037 1.355.037.105 0 .81-.038 1.164-.038.133 0 .19.025.19.096 0 .05-.05.07-.093.07-.087 0-.157.014-.3.037-.318.046-.41.26-.434.67-.023.377-.023.71-.023 2.545v1.646c0 1.693.375 2.428.885 2.906.574.545 1.105.648 1.775.648.717 0 1.422-.34 1.848-.85.542-.668.683-1.67.683-2.883v-1.47c0-1.835 0-2.167-.023-2.543-.023-.4-.117-.59-.504-.67-.094-.024-.295-.038-.402-.038-.05 0-.094-.02-.094-.07 0-.07.057-.096.188-.096.53 0 1.18.037 1.25.037.082 0 .633-.037.99-.037.13 0 .186.025.186.096 0 .05-.045.07-.092.07-.082 0-.154 0-.297.037-.32.06-.412.26-.436.67-.026.377-.026.71-.026 2.545v1.26c0 1.268-.14 2.684-1.082 3.52-.846.752-1.73.87-2.426.87-.396 0-1.586-.048-2.422-.837C.446 4.257 0 3.433 0 1.716z"/></defs><g><g><use xlink:href="#a" x="152.108" y="69.339"/><use xlink:href="#b" x="141.277" y="73.224"/><use xlink:href="#b" x="130.133" y="73.224"/><use xlink:href="#c" x="122.247" y="70.929"/><path d="M114.11 74.67c-.165-.08-.177-.13-.177-.448 0-.588.047-1.06.06-1.246.013-.127.036-.188.095-.188.07 0 .082.035.082.13 0 .104 0 .267.035.433.178.872.955 1.202 1.742 1.202 1.13 0 1.682-.81 1.682-1.564 0-.814-.34-1.283-1.353-2.117l-.53-.438c-1.245-1.023-1.53-1.752-1.53-2.55 0-1.263.943-2.122 2.436-2.122.46 0 .803.047 1.096.12.222.046.317.058.41.058s.122.025.122.084-.05.443-.05 1.242c0 .19-.022.273-.083.273-.07 0-.083-.06-.095-.154-.012-.14-.084-.457-.154-.588-.07-.13-.386-.623-1.466-.623-.816 0-1.453.506-1.453 1.365 0 .67.333 1.07 1.442 1.977l.324.262c1.39 1.096 1.72 1.824 1.72 2.764 0 .484-.185 1.38-1 1.955-.507.355-1.14.494-1.776.494-.555-.003-1.094-.085-1.58-.32z"/><use xlink:href="#d" x="104.414" y="69.339"/><use xlink:href="#c" x="97.526" y="70.929"/><use xlink:href="#e" x="90.642" y="71.435"/></g><g><use xlink:href="#a" x="78.646" y="69.339"/><use xlink:href="#f" x="68.843" y="69.147"/></g><g><use xlink:href="#a" x="56.847" y="69.339"/><use xlink:href="#e" x="50.868" y="71.435"/><use xlink:href="#c" x="42.31" y="70.929"/><path d="M33.706 66.51c0-.07.035-.118.095-.14.117-.037.436-.072.79-.072 1.26 0 2.035.887 2.035 2.355 0 .895-.307 1.53-.72 1.812-.27.19-.6.225-.88.225-.52 0-1.06-.082-1.237-.188-.06-.037-.082-.082-.082-.143zm-.942 4.9c0 1.128 0 2.058-.06 2.554-.046.34-.104.6-.34.646-.105.025-.248.05-.354.05-.07 0-.094.034-.094.07 0 .07.06.093.188.093.353 0 1.095-.033 1.106-.033.058 0 .8.033 1.447.033.13 0 .188-.033.188-.094 0-.036-.022-.07-.093-.07-.106 0-.365-.024-.53-.05-.353-.047-.423-.307-.46-.646-.058-.496-.058-1.426-.058-2.555v-.284c0-.057.022-.094.082-.094l1.447.023c.07 0 .106.025.153.07.236.307.79 1.094 1.283 1.744.67.882 1.083 1.456 1.588 1.73.307.165.6.222 1.26.222h.836c.212 0 .282-.02.282-.094 0-.035-.047-.07-.106-.07-.07 0-.235 0-.46-.037-.292-.046-.8-.177-1.435-.843-.682-.732-1.483-1.78-2.45-3.016 1.062-.976 1.426-1.845 1.426-2.718 0-.814-.517-1.39-.81-1.604-.625-.443-1.414-.516-2.155-.516-.365 0-1.26.037-1.39.037-.058 0-.8-.038-1.33-.038-.13 0-.187.023-.187.096 0 .047.046.07.094.07.106 0 .307.012.4.035.39.082.482.266.506.668.023.38.023.708.023 2.542z"/><use xlink:href="#a" x="25.586" y="69.339"/><use xlink:href="#g" x="28.999" y="64.323"/><use xlink:href="#f" x="16.251" y="69.147"/><use xlink:href="#a" x="8.082" y="69.339"/><use xlink:href="#g" x="11.495" y="64.323"/><path d="M1.112 69.335c0-1.834 0-2.162-.023-2.54-.024-.403-.118-.587-.507-.67-.094-.022-.294-.034-.4-.034-.047 0-.094-.022-.094-.07 0-.07.06-.095.187-.095.53 0 1.27.037 1.33.037.235 0 2.624 0 2.896-.014.224-.012.412-.012.518-.047.073-.022.12-.07.166-.07.048 0 .07.048.07.106 0 .084-.06.225-.094.55-.01.12-.035.64-.06.776-.01.06-.034.13-.093.13-.06 0-.083-.058-.083-.142 0-.092-.036-.29-.106-.443-.07-.154-.342-.367-.8-.38l-1.813-.036c-.07 0-.105.038-.105.134v3.25c0 .072.013.105.082.105l1.508-.013c.2 0 .365 0 .53-.012.28-.023.435-.06.54-.213.048-.06.083-.12.13-.12s.058.04.058.098c0 .07-.06.273-.095.656-.022.236-.046.71-.046.793 0 .1 0 .22-.084.22-.06 0-.082-.047-.082-.105-.012-.115-.024-.28-.07-.422-.06-.166-.247-.38-.612-.426-.295-.035-1.577-.035-1.778-.035-.06 0-.082.02-.082.105v1.002c0 1.128 0 2.058.06 2.554.035.34.105.6.46.646.163.025.423.05.528.05.07 0 .093.034.093.07 0 .06-.058.093-.188.093-.646 0-1.388-.033-1.447-.033s-.8.033-1.153.033c-.13 0-.188-.02-.188-.094 0-.036.023-.07.094-.07.107 0 .248-.024.355-.05.234-.047.293-.307.34-.646.06-.496.06-1.426.06-2.555z"/></g><g><use xlink:href="#a" x="152.196" y="55.214"/><use xlink:href="#d" x="141.744" y="55.214"/><path d="M131.37 55.907c0-2.576 1.476-3.874 3.44-3.874 1.86 0 3.578 1.52 3.578 4.347 0 3.424-2.19 4.035-3.25 4.035-2.118 0-3.767-1.768-3.767-4.508zm7.314 5.65c1.906 1.048 3.422 1.58 4.85 1.58 1.742 0 3.06-.51 3.73-.813.072-.037.096-.07.096-.117 0-.035-.023-.07-.072-.07-.035 0-.094.023-.166.05-.81.323-1.73.454-2.318.454-.588 0-2.375-.06-4.955-1.384l-2.415-1.25c.777-.512 2.086-1.885 2.086-3.957 0-2.73-1.978-4.415-4.624-4.415-3.25 0-4.64 2.697-4.64 4.605 0 2.117 1.34 4.623 4.604 4.623.62 0 1.422-.176 1.846-.402l1.978 1.096z"/><path d="M127.404 57.286c0 1.13 0 2.06.06 2.553.036.34.106.597.462.644.164.023.422.047.527.047.07 0 .094.038.094.073 0 .06-.06.094-.188.094-.65 0-1.39-.035-1.448-.035s-.8.035-1.154.035c-.13 0-.19-.023-.19-.094 0-.035.024-.072.095-.072.107 0 .25-.022.355-.046.234-.047.295-.303.34-.645.057-.493.057-1.425.057-2.554v-2.072c0-1.836 0-2.168-.02-2.544-.022-.4-.142-.6-.4-.66-.128-.034-.284-.048-.366-.048-.048 0-.095-.02-.095-.07 0-.07.06-.096.188-.096.393 0 1.133.037 1.19.037s.8-.037 1.157-.037c.127 0 .186.025.186.096 0 .05-.05.07-.094.07-.082 0-.152.014-.293.037-.323.058-.417.26-.44.67-.023.376-.023.708-.023 2.544z"/><use xlink:href="#b" x="115.59" y="59.097"/><path d="M111.08 57.286c0 1.13 0 2.06.06 2.553.034.34.106.597.46.644.162.023.42.047.527.047.072 0 .094.038.094.073 0 .06-.058.094-.187.094-.646 0-1.387-.035-1.445-.035s-.803.035-1.156.035c-.13 0-.188-.023-.188-.094 0-.035.02-.072.094-.072.107 0 .25-.022.355-.046.232-.047.29-.303.338-.645.062-.493.062-1.425.062-2.554v-1.238c0-.047-.037-.07-.072-.07h-4.992c-.035 0-.068.012-.068.07v1.238c0 1.13 0 2.06.057 2.553.035.34.107.597.463.644.166.023.422.047.525.047.072 0 .098.038.098.073 0 .06-.06.094-.19.094-.645 0-1.388-.035-1.446-.035s-.8.035-1.152.035c-.13 0-.19-.023-.19-.094 0-.035.024-.072.095-.072.105 0 .246-.022.354-.046.238-.047.297-.303.344-.645.057-.493.057-1.425.057-2.554v-2.072c0-1.836 0-2.168-.023-2.544-.023-.4-.115-.59-.506-.67-.094-.024-.295-.038-.402-.038-.047 0-.092-.02-.092-.07 0-.07.057-.096.186-.096.533 0 1.273.037 1.332.037s.8-.037 1.154-.037c.133 0 .19.025.19.096 0 .05-.048.07-.095.07-.083 0-.155.014-.298.037-.318.058-.412.26-.438.67-.02.376-.02.708-.02 2.544v.248c0 .057.032.066.067.066h4.993c.035 0 .072-.01.072-.066v-.248c0-1.836 0-2.168-.025-2.544-.023-.4-.117-.59-.502-.67-.096-.024-.3-.038-.402-.038-.05 0-.098-.02-.098-.07 0-.07.06-.096.19-.096.53 0 1.274.037 1.333.037s.8-.037 1.15-.037c.13 0 .19.025.19.096 0 .05-.048.07-.095.07-.082 0-.15.014-.29.037-.32.058-.417.26-.438.67-.023.376-.023.708-.023 2.544z"/><use xlink:href="#h" x="94.574" y="59.591"/><use xlink:href="#a" x="87.313" y="55.214"/><path d="M81.69 57.286c0 1.13 0 2.06.056 2.553.035.34.107.597.46.644.167.023.425.047.528.047.072 0 .094.038.094.073 0 .06-.06.094-.185.094-.648 0-1.388-.035-1.446-.035-.06 0-.8.035-1.156.035-.13 0-.188-.023-.188-.094 0-.035.023-.072.094-.072.107 0 .25-.022.355-.046.235-.047.296-.303.34-.645.062-.493.062-1.425.062-2.554v-4.98l-1.744.023c-.73.013-1.01.095-1.198.376-.13.2-.166.28-.2.364-.036.095-.07.118-.12.118-.034 0-.06-.035-.06-.106 0-.118.237-1.132.26-1.226.024-.072.072-.223.12-.223.08 0 .2.116.52.142.338.034.785.058.928.058h4.414c.753 0 1.067-.116 1.163-.116.06 0 .06.067.06.14 0 .354-.034 1.167-.034 1.297 0 .105-.034.154-.083.154-.06 0-.082-.035-.096-.2l-.01-.132c-.044-.352-.313-.62-1.444-.646l-1.484-.023z"/><path d="M72.556 57.647c0-.635-.117-.893-.27-1.232-.083-.188-1.66-2.78-2.07-3.392-.297-.436-.59-.728-.803-.87-.176-.12-.4-.19-.507-.19-.06 0-.116-.022-.116-.083 0-.047.046-.084.152-.084.224 0 1.106.037 1.165.037.083 0 .53-.037.988-.037.13 0 .154.037.154.084 0 .05-.072.06-.18.107-.092.046-.15.118-.15.21 0 .146.06.284.15.462.19.34 1.956 3.376 2.167 3.72.224-.496 1.72-3.072 1.954-3.463.155-.247.2-.447.2-.6 0-.165-.045-.295-.188-.33-.104-.037-.176-.06-.176-.12 0-.046.07-.07.188-.07.306 0 .682.036.776.036.07 0 .918-.037 1.14-.037.084 0 .156.025.156.072 0 .06-.06.094-.155.094-.127 0-.35.05-.54.168-.235.14-.364.283-.623.597-.388.474-2.037 3.24-2.25 3.747-.175.422-.175.79-.175 1.174v1.014c0 .188 0 .686.035 1.178.024.342.13.598.483.645.164.023.423.047.53.047.068 0 .093.037.093.072 0 .06-.058.094-.188.094-.646 0-1.388-.035-1.447-.035s-.802.035-1.153.035c-.13 0-.188-.023-.188-.094 0-.035.023-.072.093-.072.107 0 .247-.023.354-.047.235-.047.34-.303.364-.645.036-.492.036-.99.036-1.178z"/><use xlink:href="#e" x="65.505" y="57.31"/><use xlink:href="#i" x="53.758" y="55.907"/><path d="M46.424 55.214c0-1.836 0-2.168-.023-2.544-.022-.4-.117-.59-.506-.67-.093-.024-.293-.038-.398-.038-.048 0-.096-.02-.096-.07 0-.07.06-.096.188-.096.53 0 1.236.037 1.33.037.26 0 .94-.037 1.483-.037 1.474 0 2.002.5 2.19.674.26.246.59.777.59 1.398 0 1.674-1.225 2.803-2.897 2.803-.06 0-.188 0-.247-.013-.06 0-.13-.02-.13-.082 0-.09.07-.102.317-.102 1.142 0 2.037-.84 2.037-1.922 0-.386-.035-1.173-.66-1.81-.624-.636-1.34-.59-1.612-.59-.2 0-.4.025-.506.072-.07.023-.095.105-.095.223v4.84c0 1.13 0 2.06.06 2.553.035.342.105.598.46.645.164.023.422.047.53.047.07 0 .093.037.093.072 0 .06-.06.094-.188.094-.647 0-1.39-.035-1.448-.035-.035 0-.776.036-1.13.036-.13 0-.188-.023-.188-.094 0-.035.024-.072.094-.072.106 0 .247-.023.354-.047.235-.047.295-.303.342-.645.06-.492.06-1.424.06-2.553z"/></g><g><use xlink:href="#a" x="35.418" y="55.214"/><use xlink:href="#e" x="29.439" y="57.31"/><use xlink:href="#i" x="17.457" y="55.907"/><use xlink:href="#h" x="8.287" y="59.591"/><use xlink:href="#a" x="1.025" y="55.214"/><use xlink:href="#g" x="4.438" y="50.198"/></g></g><g><path d="M61.177 0S55.4 10.086 55.18 19.572h5.343v4.578h-5.56s-.438 9.487 6.214 20.062H55.78S42.697 26.17 55.78 0h5.397zM81.404 44.22h5.09V24.16h5.432v-4.58H86.58C86.8 10.095 92.578.01 92.578.01h-5.395c-4.15 8.295-5.668 15.776-5.805 22.124l.026 22.086zM99.967 24.16s-.44 9.485 6.213 20.062h-5.398s-6.103-8.416-5.8-22.09V0h4.958l.027 24.16zM64.512 0h5.015v44.22h-5.015zM76.287 0h-5.342s8.396 11.013 0 22.134h5.342s7.91-10.455 0-22.134z"/><path fill="#c50509" d="M50.637 44.198s-13.084-18.03 0-44.198H.32v44.198h50.317zM111.367 44.222c-6.65-10.576-6.215-20.062-6.215-20.062L105.125 0h51.14l-.042 44.218-44.856.004z"/></g></svg>