<?xml version="1.0" encoding="utf-8"?>
<!-- Generator: Adobe Illustrator 17.0.0, SVG Export Plug-In . SVG Version: 6.00 Build 0)  -->
<!DOCTYPE svg PUBLIC "-//W3C//DTD SVG 1.1//EN" "http://www.w3.org/Graphics/SVG/1.1/DTD/svg11.dtd">
<svg version="1.1" id="Calque_1" xmlns="http://www.w3.org/2000/svg" xmlns:xlink="http://www.w3.org/1999/xlink" x="0px" y="0px"
	 width="160px" height="50px" viewBox="0 0 160 50" enable-background="new 0 0 160 50" xml:space="preserve">
<g>
	<g>
		<path d="M52.744,34.24c-1.507,0-2.779-0.52-3.818-1.562c-1.038-1.042-1.558-2.318-1.558-3.829c0-0.98,0.237-1.886,0.711-2.716
			c1.016-1.783,2.567-2.675,4.653-2.675h5.365v-2.656c0-0.751-0.257-1.382-0.77-1.891c-0.514-0.509-1.148-0.765-1.903-0.765h-5.348
			c-0.911,0-1.366-0.451-1.366-1.354s0.455-1.354,1.366-1.354h5.365c1.504,0,2.773,0.519,3.81,1.557
			c1.036,1.038,1.554,2.31,1.554,3.815v12.087c0,0.895-0.448,1.343-1.344,1.343H52.744z M58.098,26.167h-5.362
			c-0.745,0-1.379,0.261-1.899,0.783c-0.522,0.522-0.782,1.155-0.782,1.899c0,0.732,0.264,1.362,0.792,1.89
			c0.528,0.529,1.158,0.793,1.89,0.793h5.362L58.098,26.167L58.098,26.167z"/>
		<path d="M76.553,15.437c0.895,0,1.344,0.448,1.344,1.344v20.156c0,1.506-0.518,2.779-1.554,3.818
			c-1.037,1.038-2.306,1.558-3.81,1.558h-5.365c-0.911,0-1.366-0.452-1.366-1.354c0-0.903,0.455-1.354,1.366-1.354h5.348
			c0.742,0,1.374-0.261,1.894-0.782c0.519-0.522,0.78-1.156,0.78-1.9V34.24h-5.365c-2.087,0-3.638-0.889-4.653-2.666
			c-0.474-0.827-0.711-1.729-0.711-2.706V20.81c0-1.506,0.519-2.777,1.558-3.815c1.038-1.038,2.31-1.557,3.818-1.557L76.553,15.437
			L76.553,15.437z M75.189,18.146h-5.362c-0.745,0-1.379,0.26-1.899,0.781c-0.522,0.521-0.782,1.153-0.782,1.896v8.031
			c0,0.731,0.264,1.359,0.792,1.886s1.158,0.791,1.89,0.791h5.362L75.189,18.146L75.189,18.146z"/>
		<path d="M84.258,26.167v2.682c0,0.732,0.264,1.362,0.793,1.89c0.528,0.529,1.158,0.793,1.89,0.793h6.706
			c0.894,0,1.341,0.452,1.341,1.354c0,0.903-0.448,1.354-1.344,1.354h-6.719c-1.507,0-2.779-0.518-3.818-1.557
			c-1.038-1.038-1.558-2.31-1.558-3.815v-6.716c0-1.858,0.654-3.442,1.965-4.751c1.31-1.309,2.895-1.964,4.754-1.964
			c1.886,0,3.478,0.647,4.775,1.941c1.296,1.294,1.944,2.882,1.944,4.765v4.023H84.258V26.167z M88.269,18.146
			c-1.108,0-2.053,0.389-2.836,1.167s-1.174,1.717-1.174,2.818v1.328h8.021V22.13c0-1.1-0.392-2.039-1.175-2.818
			C90.321,18.535,89.376,18.146,88.269,18.146z"/>
		<path d="M98.641,16.781c0-0.895,0.448-1.344,1.344-1.344h6.719c1.506,0,2.779,0.519,3.818,1.557
			c1.038,1.038,1.558,2.31,1.558,3.815v8.058c0,1.493-0.518,2.76-1.554,3.805c-1.037,1.045-2.306,1.567-3.81,1.567h-5.365v6.728
			c0,0.897-0.452,1.345-1.354,1.345c-0.903,0-1.354-0.448-1.354-1.344V16.781H98.641z M101.349,18.146v13.386h5.347
			c0.742,0,1.374-0.26,1.894-0.78c0.519-0.521,0.78-1.153,0.78-1.897v-8.031c0-0.757-0.257-1.393-0.77-1.907
			c-0.513-0.514-1.148-0.771-1.904-0.771H101.349z"/>
		<path d="M115.731,27.525v-5.373c0-1.858,0.654-3.442,1.965-4.751c1.31-1.309,2.895-1.964,4.754-1.964
			c1.886,0,3.478,0.648,4.775,1.943c1.296,1.296,1.944,2.887,1.944,4.772v5.373c0,1.859-0.655,3.442-1.965,4.751
			c-1.31,1.309-2.895,1.964-4.753,1.964c-1.86,0-3.444-0.654-4.754-1.964C116.385,30.968,115.731,29.384,115.731,27.525z
			 M126.46,27.516v-5.355c0-1.108-0.392-2.054-1.175-2.839c-0.783-0.784-1.729-1.177-2.835-1.177c-1.108,0-2.053,0.392-2.836,1.177
			s-1.174,1.73-1.174,2.839v5.355c0,1.122,0.388,2.072,1.165,2.849c0.776,0.778,1.724,1.166,2.846,1.166
			c1.107,0,2.052-0.391,2.835-1.176C126.068,29.571,126.46,28.625,126.46,27.516z"/>
		<path d="M132.822,8.708c0-0.895,0.451-1.344,1.354-1.344s1.354,0.448,1.354,1.344v21.5c0,0.693,0.444,1.141,1.331,1.344
			s1.331,0.652,1.331,1.344c0,0.896-0.448,1.344-1.343,1.344c-1.208,0-2.181-0.356-2.92-1.069s-1.108-1.7-1.108-2.963v-21.5
			C132.821,8.708,132.822,8.708,132.822,8.708z"/>
		<path d="M144.921,39.609l2.238-6.732l-5.202-15.666c-0.068-0.163-0.102-0.306-0.102-0.428c0-0.897,0.455-1.345,1.366-1.345
			c0.662,0,1.097,0.304,1.304,0.911l4.062,12.233l4.068-12.233c0.204-0.607,0.634-0.911,1.288-0.911c0.9,0,1.35,0.448,1.35,1.345
			c0,0.122-0.024,0.265-0.071,0.428l-8.036,24.17c-0.203,0.621-0.631,0.932-1.282,0.932h-2.707c-0.895,0-1.343-0.451-1.343-1.353
			c0-0.724,0.372-1.161,1.117-1.311C143.094,39.622,143.744,39.609,144.921,39.609z"/>
	</g>
	<path fill="#010202" stroke="#010202" stroke-width="3" stroke-linecap="round" d="M159.375,0"/>
	<path fill="#010202" stroke="#010202" stroke-width="3" stroke-linecap="round" d="M0.625,0"/>
	<path fill="#010202" stroke="#010202" stroke-width="3" stroke-linecap="round" d="M159.375,50"/>
	<path fill="#010202" stroke="#010202" stroke-width="3" stroke-linecap="round" d="M0.625,50"/>
	<g>
		<g>
			<path fill="#C61618" d="M27.048,22.287c-1.669,1.664-3.698,2.496-6.086,2.496c-2.396,0-4.437-0.831-6.121-2.496l0.001,0.001
				c1.506-1.664,3.683-2.71,6.104-2.71c2.42,0,4.596,1.045,6.102,2.708"/>
			<path fill="#C61618" d="M17.31,16.63c-1.182,1.799-2.549,2.948-4.098,3.451c-0.599-1.198-0.9-2.51-0.9-3.934
				c0.001-2.389,0.84-4.439,2.517-6.148c1.392-1.393,3.045-2.214,4.963-2.461C19.793,11.119,18.965,14.15,17.31,16.63z"/>
			<path fill="#C61618" d="M22.096,7.537c1.917,0.248,3.571,1.069,4.963,2.461c1.677,1.709,2.516,3.759,2.516,6.148
				c0,1.424-0.3,2.735-0.899,3.934c-1.549-0.503-2.915-1.652-4.098-3.451C22.923,14.15,22.095,11.119,22.096,7.537z"/>
		</g>
		<g>
			<path fill="#C61618" d="M22.654,35.851c-0.61-2.277-0.319-4.45,0.872-6.52c1.195-2.076,2.934-3.431,5.216-4.061h-0.001
				c0.691,2.135,0.512,4.544-0.695,6.642c-1.207,2.098-3.198,3.463-5.39,3.939"/>
			<path fill="#C61618" d="M32.414,30.232c-0.97-1.922-1.285-3.68-0.947-5.273c1.337,0.079,2.624,0.472,3.859,1.182
				c2.07,1.192,3.429,2.942,4.073,5.247c0.514,1.901,0.4,3.744-0.341,5.529C35.952,35.133,33.738,32.904,32.414,30.232z"/>
			<path fill="#C61618" d="M37.908,38.916c-1.17,1.538-2.707,2.562-4.608,3.074c-2.318,0.602-4.513,0.306-6.584-0.885
				c-1.234-0.71-2.221-1.624-2.961-2.741c1.208-1.092,2.886-1.702,5.035-1.831C31.764,36.335,34.804,37.128,37.908,38.916z"/>
		</g>
		<g>
			<path fill="#C61618" d="M13.092,25.266c2.277,0.61,4.013,1.949,5.211,4.016c1.201,2.073,1.504,4.256,0.909,6.548v-0.001
				c-2.195-0.469-4.191-1.829-5.404-3.923s-1.4-4.501-0.716-6.637"/>
			<path fill="#C61618" d="M13.078,36.529c2.149,0.121,3.829,0.728,5.04,1.816c-0.737,1.119-1.72,2.037-2.953,2.751
				c-2.068,1.197-4.262,1.498-6.581,0.904c-1.903-0.506-3.442-1.525-4.618-3.06C7.065,37.142,10.103,36.339,13.078,36.529z"/>
			<path fill="#C61618" d="M2.811,36.944c-0.746-1.782-0.865-3.625-0.358-5.527c0.638-2.308,1.991-4.062,4.059-5.259
				c1.232-0.714,2.517-1.111,3.855-1.194c0.341,1.592,0.031,3.351-0.931,5.276C8.119,32.914,5.911,35.15,2.811,36.944z"/>
		</g>
	</g>
</g>
</svg>
