<?xml version="1.0" encoding="utf-8"?>
<!-- Generator: Adobe Illustrator 17.0.0, SVG Export Plug-In . SVG Version: 6.00 Build 0)  -->
<!DOCTYPE svg PUBLIC "-//W3C//DTD SVG 1.1//EN" "http://www.w3.org/Graphics/SVG/1.1/DTD/svg11.dtd">
<svg version="1.1" id="Calque_1" xmlns="http://www.w3.org/2000/svg" xmlns:xlink="http://www.w3.org/1999/xlink" x="0px" y="0px"
	 width="141.73px" height="56.69px" viewBox="0 0 141.73 56.69" enable-background="new 0 0 141.73 56.69" xml:space="preserve">
<g enable-background="new    ">
	<g enable-background="new    ">
		<path fill="#FF4338" d="M3.855,41.238V15.919h5.319v4.554c0.759-1.527,1.908-2.729,3.449-3.607s3.202-1.317,4.982-1.317
			c3.995,0,6.705,1.626,8.129,4.878c2.509-3.252,5.629-4.878,9.361-4.878c2.849,0,5.157,0.871,6.922,2.613s2.648,4.262,2.648,7.561
			v15.516h-5.319V27.301c0-4.677-1.936-7.015-5.807-7.015c-1.812,0-3.391,0.579-4.738,1.736s-2.052,2.855-2.114,5.092v14.123h-5.319
			V27.301c0-2.424-0.43-4.198-1.289-5.325c-0.859-1.126-2.21-1.689-4.053-1.689s-3.445,0.61-4.808,1.829
			c-1.363,1.22-2.044,3.011-2.044,5.372v13.75C9.174,41.238,3.855,41.238,3.855,41.238z"/>
		<path fill="#FF4338" d="M48.637,15.919h5.714l7.572,18.652l7.549-18.652h5.715l-12.265,30.08
			c-0.728,1.641-1.777,2.938-3.147,3.891s-2.876,1.429-4.518,1.429c-2.323,0-4.414-0.837-6.271-2.509l2.416-4.344
			c1.115,1.053,2.265,1.579,3.449,1.579s2.152-0.43,2.903-1.289s1.127-1.792,1.127-2.799C58.881,41.508,55.467,32.829,48.637,15.919
			z"/>
		<path fill="#FF4338" d="M70.286,48.905l2.463-3.914c1.068,1.06,2.145,1.59,3.229,1.59c0.015,0,0.03,0,0.046,0
			c1.084-0.016,1.912-0.374,2.485-1.075s0.859-1.675,0.859-2.922V15.919h5.319v26.688c0,2.663-0.802,4.781-2.404,6.353
			c-1.603,1.572-3.534,2.358-5.795,2.358S72.16,50.514,70.286,48.905z M79.6,10.879c-0.666-0.666-0.999-1.455-0.999-2.369
			s0.333-1.703,0.999-2.369s1.46-0.999,2.381-0.999s1.715,0.333,2.381,0.999s0.999,1.456,0.999,2.369
			c0,0.914-0.333,1.704-0.999,2.369c-0.666,0.666-1.46,0.999-2.381,0.999S80.266,11.545,79.6,10.879z"/>
	</g>
	<path fill="#FF4338" d="M99.673,18.934c4.253,0,7.69,3.872,7.69,8.638c0,4.769-3.437,8.619-7.69,8.619
		c-4.25,0-7.709-3.85-7.709-8.619C91.964,22.807,95.423,18.934,99.673,18.934z M99.652,14.913c-6.667,0-12.078,5.746-12.078,12.822
		c0,7.081,5.411,12.823,12.078,12.823c6.666,0,12.078-5.742,12.078-12.823C111.73,20.659,106.318,14.913,99.652,14.913z"/>
	<g enable-background="new    ">
		<path fill="#FF4338" d="M113.626,40.652V5.415h5.319v14.424c2.09-3.251,4.835-4.877,8.234-4.877c3.398,0,6.302,1.183,8.71,3.549
			c2.407,2.366,3.611,5.492,3.611,9.378s-1.195,7.046-3.588,9.481s-5.184,3.653-8.374,3.653c-3.189,0-6.055-1.395-8.594-4.182v3.81
			L113.626,40.652L113.626,40.652z M121.047,22.095c-1.463,1.596-2.194,3.593-2.194,5.99s0.731,4.364,2.194,5.898
			c1.464,1.534,3.24,2.301,5.331,2.301c2.091,0,3.914-0.759,5.47-2.277c1.557-1.52,2.335-3.485,2.335-5.898
			s-0.763-4.418-2.288-6.014c-1.525-1.597-3.349-2.395-5.47-2.395C124.302,19.7,122.51,20.498,121.047,22.095z"/>
	</g>
	
		<rect x="108.899" y="41.911" transform="matrix(-0.842 0.5394 -0.5394 -0.842 233.4664 29.1532)" fill="#D41116" width="7.132" height="13.699"/>
	
		<rect x="105.164" y="36.894" transform="matrix(-0.8419 0.5396 -0.5396 -0.8419 218.7428 16.5559)" fill="#FF4338" width="3.564" height="6.852"/>
	<path opacity="0.4745" fill="#FFFFFF" enable-background="new    " d="M102.733,34.653c0.566-0.356,3.347-3.488,3.549-6.369
		c0.203-2.878-1.426-7.107-3.462-7.107c-2.037,0,0.914,2.508,0.914,5.481c0,2.972-0.831,4.642-1.902,6.413
		C101.124,34.247,101.666,35.317,102.733,34.653z"/>
	
		<rect x="108.899" y="41.911" transform="matrix(-0.842 0.5394 -0.5394 -0.842 233.4664 29.1532)" fill="#010202" width="7.132" height="13.699"/>
	<path fill="#111111" d="M28.608,12.678l-1.329,6.068c0,0,1.702,3.68,7.81,3.829c6.112,0.149,8.736-3.734,8.736-3.734l-1.009-6.515
		L28.608,12.678z"/>
	<polygon fill="#010202" points="20.235,9.07 36.048,2.392 51.98,9.07 35.689,16.935 	"/>
	<polyline fill="none" stroke="#989B9C" stroke-width="0.8" points="36.193,8.838 44.867,12.383 44.997,21.45 44.997,21.189 	"/>
</g>
</svg>
