<?xml version="1.0" encoding="utf-8"?>
<!-- Generator: Adobe Illustrator 18.0.0, SVG Export Plug-In . SVG Version: 6.00 Build 0)  -->
<!DOCTYPE svg PUBLIC "-//W3C//DTD SVG 1.1//EN" "http://www.w3.org/Graphics/SVG/1.1/DTD/svg11.dtd">
<svg version="1.1" id="Calque_1" xmlns="http://www.w3.org/2000/svg" xmlns:xlink="http://www.w3.org/1999/xlink" x="0px" y="0px"
	 viewBox="0 0 667.8 111" enable-background="new 0 0 667.8 111" xml:space="preserve">
<g>
	<path fill="#C61618" d="M405.3,77.9c-3.6,0-6.7-1.2-9.2-3.7c-2.5-2.5-3.7-5.6-3.7-9.2c0-2.4,0.6-4.5,1.7-6.5
		c2.4-4.3,6.2-6.4,11.2-6.4h12.9v-6.4c0-1.8-0.6-3.3-1.8-4.5c-1.2-1.2-2.8-1.8-4.6-1.8h-12.8c-2.2,0-3.3-1.1-3.3-3.2
		c0-2.2,1.1-3.2,3.3-3.2h12.9c3.6,0,6.7,1.2,9.1,3.7c2.5,2.5,3.7,5.5,3.7,9.2v29c0,2.1-1.1,3.2-3.2,3.2L405.3,77.9L405.3,77.9z
		 M418.1,58.5h-12.9c-1.8,0-3.3,0.6-4.6,1.9c-1.3,1.3-1.9,2.8-1.9,4.6c0,1.8,0.6,3.3,1.9,4.5c1.3,1.3,2.8,1.9,4.5,1.9h12.9
		L418.1,58.5L418.1,58.5z"/>
	<path fill="#C61618" d="M462.4,32.8c2.1,0,3.2,1.1,3.2,3.2v48.4c0,3.6-1.2,6.7-3.7,9.2c-2.5,2.5-5.5,3.7-9.1,3.7h-12.9
		c-2.2,0-3.3-1.1-3.3-3.2c0-2.2,1.1-3.2,3.3-3.2h12.8c1.8,0,3.3-0.6,4.5-1.9c1.2-1.3,1.9-2.8,1.9-4.6v-6.4h-12.9
		c-5,0-8.7-2.1-11.2-6.4c-1.1-2-1.7-4.2-1.7-6.5V45.7c0-3.6,1.2-6.7,3.7-9.2c2.5-2.5,5.5-3.7,9.2-3.7L462.4,32.8L462.4,32.8z
		 M459.1,39.3h-12.9c-1.8,0-3.3,0.6-4.6,1.9c-1.3,1.2-1.9,2.8-1.9,4.6V65c0,1.8,0.6,3.3,1.9,4.5c1.3,1.3,2.8,1.9,4.5,1.9h12.9
		L459.1,39.3L459.1,39.3z"/>
	<path fill="#C61618" d="M480.9,58.5V65c0,1.8,0.6,3.3,1.9,4.5c1.3,1.3,2.8,1.9,4.5,1.9h16.1c2.1,0,3.2,1.1,3.2,3.2
		c0,2.2-1.1,3.2-3.2,3.2h-16.1c-3.6,0-6.7-1.2-9.2-3.7c-2.5-2.5-3.7-5.5-3.7-9.2V48.9c0-4.5,1.6-8.3,4.7-11.4
		c3.1-3.1,6.9-4.7,11.4-4.7c4.5,0,8.3,1.6,11.5,4.7c3.1,3.1,4.7,6.9,4.7,11.4v9.7L480.9,58.5L480.9,58.5z M490.5,39.3
		c-2.7,0-4.9,0.9-6.8,2.8c-1.9,1.9-2.8,4.1-2.8,6.8V52h19.2v-3.2c0-2.6-0.9-4.9-2.8-6.8C495.4,40.2,493.2,39.3,490.5,39.3z"/>
	<path fill="#C61618" d="M515.4,36c0-2.1,1.1-3.2,3.2-3.2h16.1c3.6,0,6.7,1.2,9.2,3.7c2.5,2.5,3.7,5.5,3.7,9.2V65
		c0,3.6-1.2,6.6-3.7,9.1c-2.5,2.5-5.5,3.8-9.1,3.8h-12.9V94c0,2.2-1.1,3.2-3.2,3.2c-2.2,0-3.2-1.1-3.2-3.2L515.4,36L515.4,36z
		 M521.9,39.3v32.1h12.8c1.8,0,3.3-0.6,4.5-1.9c1.2-1.2,1.9-2.8,1.9-4.6V45.7c0-1.8-0.6-3.3-1.8-4.6c-1.2-1.2-2.8-1.8-4.6-1.8
		C534.7,39.3,521.9,39.3,521.9,39.3z"/>
	<path fill="#C61618" d="M556.4,61.8V48.9c0-4.5,1.6-8.3,4.7-11.4c3.1-3.1,6.9-4.7,11.4-4.7c4.5,0,8.3,1.6,11.5,4.7
		c3.1,3.1,4.7,6.9,4.7,11.5v12.9c0,4.5-1.6,8.3-4.7,11.4c-3.1,3.1-6.9,4.7-11.4,4.7c-4.5,0-8.3-1.6-11.4-4.7
		C558,70,556.4,66.2,556.4,61.8z M582.2,61.8V48.9c0-2.7-0.9-4.9-2.8-6.8s-4.1-2.8-6.8-2.8c-2.7,0-4.9,0.9-6.8,2.8
		c-1.9,1.9-2.8,4.2-2.8,6.8v12.9c0,2.7,0.9,5,2.8,6.8c1.9,1.9,4.1,2.8,6.8,2.8c2.7,0,4.9-0.9,6.8-2.8
		C581.2,66.7,582.2,64.4,582.2,61.8z"/>
	<path fill="#C61618" d="M597.4,16.6c0-2.1,1.1-3.2,3.2-3.2c2.2,0,3.2,1.1,3.2,3.2v51.6c0,1.7,1.1,2.7,3.2,3.2
		c2.1,0.5,3.2,1.6,3.2,3.2c0,2.2-1.1,3.2-3.2,3.2c-2.9,0-5.2-0.9-7-2.6c-1.8-1.7-2.7-4.1-2.7-7.1L597.4,16.6L597.4,16.6z"/>
	<path fill="#C61618" d="M626.5,90.8l5.4-16.2L619.4,37c-0.2-0.4-0.2-0.7-0.2-1c0-2.2,1.1-3.2,3.3-3.2c1.6,0,2.6,0.7,3.1,2.2
		l9.7,29.4L645,35c0.5-1.5,1.5-2.2,3.1-2.2c2.2,0,3.2,1.1,3.2,3.2c0,0.3-0.1,0.6-0.2,1l-19.3,58c-0.5,1.5-1.5,2.2-3.1,2.2h-6.5
		c-2.1,0-3.2-1.1-3.2-3.2c0-1.7,0.9-2.8,2.7-3.1C622.1,90.8,623.7,90.8,626.5,90.8z"/>
</g>
<g>
	<g>
		<path fill="#1475A1" d="M342.6,49.2c-4,4-8.9,6-14.6,6c-5.8,0-10.6-2-14.7-6l0,0c3.6-4,8.8-6.5,14.6-6.5
			C333.8,42.7,339,45.2,342.6,49.2"/>
		<path fill="#1475A1" d="M319.2,35.6c-2.8,4.3-6.1,7.1-9.8,8.3c-1.4-2.9-2.2-6-2.2-9.4c0-5.7,2-10.7,6-14.8
			c3.3-3.3,7.3-5.3,11.9-5.9C325.2,22.4,323.2,29.7,319.2,35.6z"/>
		<path fill="#1475A1" d="M330.7,13.8c4.6,0.6,8.6,2.6,11.9,5.9c4,4.1,6,9,6,14.8c0,3.4-0.7,6.6-2.2,9.4c-3.7-1.2-7-4-9.8-8.3
			C332.7,29.7,330.7,22.4,330.7,13.8z"/>
	</g>
	<g>
		<path fill="#5FA5C1" d="M332,81.8c-1.5-5.5-0.8-10.7,2.1-15.6c2.9-5,7-8.2,12.5-9.7l0,0c1.7,5.1,1.2,10.9-1.7,15.9
			C342.1,77.3,337.3,80.6,332,81.8"/>
		<path fill="#5FA5C1" d="M355.5,68.3c-2.3-4.6-3.1-8.8-2.3-12.7c3.2,0.2,6.3,1.1,9.3,2.8c5,2.9,8.2,7.1,9.8,12.6
			c1.2,4.6,1,9-0.8,13.3C364,80,358.6,74.7,355.5,68.3z"/>
		<path fill="#5FA5C1" d="M368.7,89.1c-2.8,3.7-6.5,6.1-11.1,7.4c-5.6,1.4-10.8,0.7-15.8-2.1c-3-1.7-5.3-3.9-7.1-6.6
			c2.9-2.6,6.9-4.1,12.1-4.4C353.9,82.9,361.2,84.8,368.7,89.1z"/>
	</g>
	<g>
		<path fill="#B6D3DB" d="M309.1,56.4c5.5,1.5,9.6,4.7,12.5,9.6c2.9,5,3.6,10.2,2.2,15.7v0c-5.3-1.1-10.1-4.4-13-9.4
			C307.9,67.3,307.5,61.5,309.1,56.4"/>
		<path fill="#B6D3DB" d="M309.1,83.4c5.2,0.3,9.2,1.7,12.1,4.4c-1.8,2.7-4.1,4.9-7.1,6.6c-5,2.9-10.2,3.6-15.8,2.2
			c-4.6-1.2-8.3-3.7-11.1-7.3C294.6,84.9,301.9,82.9,309.1,83.4z"/>
		<path fill="#B6D3DB" d="M284.4,84.4c-1.8-4.3-2.1-8.7-0.9-13.3c1.5-5.5,4.8-9.7,9.7-12.6c3-1.7,6-2.7,9.3-2.9
			c0.8,3.8,0.1,8-2.2,12.7C297.2,74.7,291.9,80.1,284.4,84.4z"/>
	</g>
</g>
<g>
	<path fill="#C61618" d="M19.4,77.8V33.3h9.4v8c1.3-2.7,3.4-4.8,6.1-6.3c2.7-1.5,5.6-2.3,8.8-2.3c7,0,11.8,2.9,14.3,8.6
		c4.4-5.7,9.9-8.6,16.5-8.6c5,0,9.1,1.5,12.2,4.6s4.7,7.5,4.7,13.3v27.3h-9.3V53.3c0-8.2-3.4-12.3-10.2-12.3c-3.2,0-6,1-8.3,3.1
		s-3.6,5-3.7,9v24.8h-9.4V53.3c0-4.3-0.8-7.4-2.3-9.4c-1.5-2-3.9-3-7.1-3s-6.1,1.1-8.5,3.2s-3.6,5.3-3.6,9.4v24.2L19.4,77.8
		L19.4,77.8z"/>
	<path fill="#C61618" d="M98.1,33.3h10l13.3,32.8l13.3-32.8h10l-21.6,52.9c-1.3,2.9-3.1,5.2-5.5,6.8c-2.4,1.7-5.1,2.5-7.9,2.5
		c-4.1,0-7.8-1.5-11-4.4l4.2-7.6c2,1.9,4,2.8,6.1,2.8s3.8-0.8,5.1-2.3c1.3-1.5,2-3.2,2-4.9C116.1,78.3,110.1,63.1,98.1,33.3z"/>
	<path fill="#C61618" d="M136.1,91.3l4.3-6.9c1.9,1.9,3.8,2.8,5.7,2.8c0,0,0.1,0,0.1,0c1.9,0,3.4-0.7,4.4-1.9c1-1.2,1.5-2.9,1.5-5.1
		V33.3h9.4v46.9c0,4.7-1.4,8.4-4.2,11.2c-2.8,2.8-6.2,4.1-10.2,4.1C143.1,95.6,139.4,94.1,136.1,91.3z M152.5,24.5
		c-1.2-1.2-1.8-2.6-1.8-4.2s0.6-3,1.8-4.2s2.6-1.8,4.2-1.8c1.6,0,3,0.6,4.2,1.8c1.2,1.2,1.8,2.6,1.8,4.2s-0.6,3-1.8,4.2
		c-1.2,1.2-2.6,1.8-4.2,1.8C155.1,26.2,153.7,25.6,152.5,24.5z"/>
	<path fill="#C61618" d="M218.9,77.8V15.9h9.4v25.4c3.7-5.7,8.5-8.6,14.5-8.6c6,0,11.1,2.1,15.3,6.2c4.2,4.2,6.3,9.7,6.3,16.5
		c0,6.8-2.1,12.4-6.3,16.7s-9.1,6.4-14.7,6.4s-10.6-2.5-15.1-7.3v6.7L218.9,77.8L218.9,77.8L218.9,77.8z M231.9,45.2
		c-2.6,2.8-3.9,6.3-3.9,10.5s1.3,7.7,3.9,10.4c2.6,2.7,5.7,4,9.4,4c3.7,0,6.9-1.3,9.6-4c2.7-2.7,4.1-6.1,4.1-10.4s-1.3-7.8-4-10.6
		c-2.7-2.8-5.9-4.2-9.6-4.2C237.6,41,234.5,42.4,231.9,45.2z"/>
	<path fill="#C61618" d="M206.9,71.8c4.5-4.4,6.7-9.8,6.7-16.3s-2.2-11.8-6.7-16.3c-4.5-4.4-10-6.6-16.7-6.6
		c-6.7,0-12.3,2.2-16.7,6.6c-4.5,4.4-6.7,9.8-6.7,16.3s2.2,11.8,6.7,16.3c4.5,4.4,10,6.6,16.7,6.6c3,0,5.8-0.5,8.4-1.4l5.8,10
		l5.5-3.2l-5.7-9.8C205.1,73.4,206,72.7,206.9,71.8z M180.1,66.1c-2.6-2.7-4-6.2-4-10.5s1.3-7.8,4-10.5c2.6-2.7,6-4.1,10.1-4.1
		s7.4,1.4,10.1,4.1c2.7,2.7,4,6.2,4,10.5s-1.3,7.8-4,10.5c-2.7,2.7-6,4.1-10.1,4.1S182.7,68.8,180.1,66.1z"/>
	<rect x="200.8" y="90.1" transform="matrix(-0.5 -0.866 0.866 -0.5 236.446 329.2551)" fill="#010202" width="25" height="12.6"/>
</g>
</svg>
