<?xml version="1.0" encoding="utf-8"?>
<!-- Generator: Adobe Illustrator 17.0.0, SVG Export Plug-In . SVG Version: 6.00 Build 0)  -->
<!DOCTYPE svg PUBLIC "-//W3C//DTD SVG 1.1//EN" "http://www.w3.org/Graphics/SVG/1.1/DTD/svg11.dtd">
<svg version="1.1" id="Calque_1" xmlns="http://www.w3.org/2000/svg" xmlns:xlink="http://www.w3.org/1999/xlink" x="0px" y="0px"
	 width="667.819px" height="110.995px" viewBox="0 0 667.819 110.995" enable-background="new 0 0 667.819 110.995"
	 xml:space="preserve">
<g>
	<path fill="#C61618" d="M406.262,77.898c-3.617,0-6.67-1.248-9.162-3.748c-2.492-2.5-3.738-5.562-3.738-9.189
		c0-2.351,0.568-4.525,1.707-6.517c2.438-4.279,6.16-6.42,11.168-6.42h12.875v-6.375c0-1.803-0.617-3.317-1.848-4.54
		c-1.232-1.223-2.756-1.836-4.568-1.836h-12.834c-2.186,0-3.277-1.082-3.277-3.25c0-2.166,1.092-3.25,3.277-3.25h12.875
		c3.609,0,6.656,1.246,9.145,3.736c2.486,2.492,3.73,5.543,3.73,9.157v29.01c0,2.148-1.076,3.223-3.225,3.223H406.262z
		 M419.112,58.523h-12.869c-1.789,0-3.309,0.627-4.559,1.879c-1.252,1.252-1.877,2.771-1.877,4.559c0,1.756,0.633,3.268,1.9,4.535
		c1.268,1.27,2.779,1.902,4.535,1.902h12.869V58.523z"/>
	<path fill="#C61618" d="M463.404,32.772c2.148,0,3.225,1.076,3.225,3.225v48.375c0,3.615-1.244,6.67-3.73,9.162
		c-2.488,2.492-5.535,3.738-9.145,3.738h-12.875c-2.186,0-3.277-1.084-3.277-3.25c0-2.168,1.092-3.25,3.277-3.25h12.834
		c1.781,0,3.297-0.627,4.545-1.877c1.246-1.254,1.871-2.773,1.871-4.561v-6.438h-12.875c-5.008,0-8.73-2.133-11.168-6.398
		c-1.139-1.984-1.707-4.15-1.707-6.494v-19.34c0-3.614,1.246-6.665,3.738-9.157c2.492-2.49,5.545-3.736,9.162-3.736H463.404z
		 M460.129,39.272H447.26c-1.789,0-3.309,0.625-4.559,1.875c-1.252,1.25-1.877,2.766-1.877,4.551v19.274
		c0,1.754,0.633,3.262,1.9,4.527c1.268,1.266,2.779,1.898,4.535,1.898h12.869V39.272z"/>
	<path fill="#C61618" d="M481.896,58.523v6.437c0,1.756,0.633,3.268,1.902,4.535c1.268,1.27,2.779,1.902,4.535,1.902h16.094
		c2.145,0,3.219,1.084,3.219,3.25c0,2.168-1.076,3.25-3.225,3.25h-16.125c-3.617,0-6.67-1.244-9.162-3.736
		c-2.492-2.49-3.738-5.543-3.738-9.156V48.888c0-4.459,1.57-8.26,4.715-11.403c3.145-3.141,6.947-4.713,11.41-4.713
		c4.527,0,8.348,1.553,11.459,4.658c3.109,3.105,4.666,6.917,4.666,11.436v9.656H481.896z M491.521,39.272
		c-2.658,0-4.928,0.934-6.807,2.801c-1.879,1.868-2.818,4.122-2.818,6.762v3.188h19.25v-3.188c0-2.641-0.941-4.895-2.82-6.762
		C496.447,40.206,494.177,39.272,491.521,39.272z"/>
	<path fill="#C61618" d="M516.414,35.997c0-2.149,1.074-3.225,3.225-3.225h16.125c3.615,0,6.67,1.246,9.162,3.736
		c2.492,2.492,3.738,5.543,3.738,9.157v19.34c0,3.582-1.244,6.625-3.731,9.133c-2.488,2.508-5.535,3.76-9.144,3.76h-12.875v16.146
		c0,2.152-1.084,3.229-3.25,3.229c-2.168,0-3.25-1.076-3.25-3.225V35.997z M522.914,39.272v32.125h12.834
		c1.781,0,3.297-0.623,4.545-1.873c1.246-1.25,1.871-2.768,1.871-4.553V45.699c0-1.816-0.617-3.342-1.848-4.577
		c-1.232-1.233-2.756-1.85-4.568-1.85H522.914z"/>
	<path fill="#C61618" d="M557.43,61.783V48.888c0-4.459,1.57-8.26,4.715-11.403c3.145-3.141,6.947-4.713,11.41-4.713
		c4.527,0,8.348,1.555,11.459,4.664c3.109,3.109,4.666,6.928,4.666,11.452v12.894c0,4.461-1.572,8.262-4.717,11.402
		c-3.145,3.143-6.947,4.713-11.408,4.713c-4.463,0-8.266-1.57-11.41-4.713C559.001,70.044,557.43,66.244,557.43,61.783z
		 M583.18,61.761V48.91c0-2.66-0.941-4.93-2.82-6.813c-1.879-1.883-4.148-2.824-6.805-2.824c-2.658,0-4.928,0.941-6.807,2.824
		c-1.879,1.883-2.818,4.153-2.818,6.813v12.852c0,2.693,0.932,4.973,2.795,6.838c1.863,1.867,4.139,2.799,6.83,2.799
		c2.656,0,4.926-0.939,6.805-2.822C582.239,66.693,583.18,64.421,583.18,61.761z"/>
	<path fill="#C61618" d="M598.448,16.622c0-2.148,1.082-3.225,3.25-3.225c2.166,0,3.25,1.076,3.25,3.225v51.6
		c0,1.662,1.064,2.738,3.195,3.226c2.129,0.488,3.195,1.565,3.195,3.225c0,2.15-1.074,3.225-3.223,3.225
		c-2.898,0-5.234-0.854-7.008-2.564c-1.773-1.711-2.66-4.08-2.66-7.111V16.622z"/>
	<path fill="#C61618" d="M627.487,90.783l5.371-16.156l-12.484-37.598c-0.164-0.391-0.244-0.734-0.244-1.027
		c0-2.152,1.092-3.229,3.277-3.229c1.59,0,2.633,0.729,3.129,2.186l9.748,29.36l9.764-29.36c0.49-1.457,1.522-2.186,3.092-2.186
		c2.16,0,3.24,1.076,3.24,3.229c0,0.293-0.057,0.637-0.17,1.027l-19.285,58.008c-0.488,1.49-1.514,2.236-3.076,2.236h-6.496
		c-2.148,0-3.223-1.082-3.223-3.246c0-1.738,0.893-2.787,2.68-3.146C623.102,90.814,624.661,90.783,627.487,90.783z"/>
</g>
<g>
</g>
<g>
	<g>
		<path fill="#1475A1" d="M344.591,49.212 M344.591,49.212c-4.006,3.994-8.875,5.989-14.607,5.989
			c-5.75,0-10.648-1.995-14.691-5.989l0.002,0.002c3.614-3.994,8.839-6.504,14.649-6.504c5.809,0,11.031,2.508,14.646,6.498"/>
		<path fill="#1475A1" d="M321.22,35.634c-2.838,4.316-6.117,7.076-9.834,8.281c-1.438-2.876-2.16-6.023-2.16-9.441
			c0.002-5.734,2.016-10.653,6.041-14.755c3.34-3.343,7.309-5.314,11.91-5.907C327.179,22.409,325.192,29.683,321.22,35.634z"/>
		<path fill="#1475A1" d="M332.708,13.812c4.6,0.595,8.57,2.564,11.91,5.906c4.025,4.102,6.039,9.021,6.039,14.756
			c0,3.418-0.721,6.564-2.158,9.441c-3.717-1.206-6.996-3.966-9.836-8.281C334.692,29.683,332.704,22.408,332.708,13.812z"/>
	</g>
	<g>
		<path fill="#5FA5C1" d="M334.046,81.765 M334.046,81.765c-1.464-5.464-0.766-10.68,2.093-15.648
			c2.868-4.983,7.041-8.234,12.518-9.747l-0.002,0.001c1.659,5.125,1.229,10.905-1.669,15.941
			c-2.897,5.034-7.675,8.311-12.936,9.453"/>
		<path fill="#5FA5C1" d="M357.471,68.28c-2.327-4.612-3.083-8.831-2.273-12.654c3.209,0.188,6.297,1.132,9.261,2.837
			c4.969,2.861,8.228,7.06,9.775,12.594c1.232,4.562,0.961,8.985-0.819,13.27C365.962,80.04,360.647,74.691,357.471,68.28z"/>
		<path fill="#5FA5C1" d="M370.655,89.121c-2.809,3.69-6.496,6.149-11.059,7.377c-5.562,1.444-10.832,0.735-15.802-2.124
			c-2.962-1.704-5.33-3.898-7.107-6.579c2.899-2.62,6.927-4.086,12.083-4.396C355.909,82.925,363.207,84.83,370.655,89.121z"/>
	</g>
	<g>
		<path fill="#B6D3DB" d="M311.098,56.362 M311.098,56.362c5.464,1.465,9.632,4.678,12.506,9.638
			c2.882,4.976,3.61,10.215,2.182,15.715v-0.003c-5.267-1.125-10.059-4.389-12.971-9.416c-2.911-5.026-3.359-10.802-1.719-15.93"/>
		<path fill="#B6D3DB" d="M311.064,83.391c5.157,0.291,9.188,1.746,12.095,4.358c-1.768,2.686-4.129,4.888-7.087,6.602
			c-4.963,2.873-10.228,3.596-15.795,2.169c-4.567-1.215-8.262-3.661-11.082-7.345C296.633,84.864,303.923,82.937,311.064,83.391z"
			/>
		<path fill="#B6D3DB" d="M286.423,84.388c-1.791-4.277-2.077-8.7-0.859-13.266c1.531-5.539,4.779-9.748,9.741-12.622
			c2.957-1.713,6.041-2.667,9.252-2.865c0.819,3.821,0.074,8.042-2.235,12.662C299.162,74.716,293.863,80.083,286.423,84.388z"/>
	</g>
</g>
<g>
	<path fill="#C61618" d="M20.369,77.836V33.328h9.35v8.003c1.334-2.685,3.354-4.798,6.064-6.343
		c2.708-1.541,5.629-2.314,8.758-2.314c7.024,0,11.786,2.857,14.291,8.574c4.41-5.717,9.896-8.574,16.455-8.574
		c5.009,0,9.064,1.53,12.168,4.593s4.654,7.492,4.654,13.292v27.277h-9.35v-24.5c0-8.221-3.403-12.332-10.207-12.332
		c-3.185,0-5.962,1.017-8.329,3.052s-3.607,5.018-3.716,8.952v24.826h-9.35V53.336c0-4.26-0.756-7.38-2.267-9.361
		c-1.511-1.981-3.886-2.971-7.125-2.971c-3.239,0-6.057,1.071-8.452,3.216s-3.594,5.292-3.594,9.442v24.172h-9.35V77.836z"/>
	<path fill="#C61618" d="M99.093,33.328h10.045l13.312,32.788l13.27-32.788h10.045l-21.56,52.879
		c-1.28,2.886-3.124,5.166-5.533,6.84c-2.409,1.675-5.056,2.512-7.942,2.512c-4.084,0-7.759-1.469-11.025-4.41l4.246-7.636
		c1.961,1.851,3.981,2.776,6.064,2.776s3.783-0.756,5.105-2.267c1.32-1.511,1.981-3.151,1.981-4.921
		C117.1,78.311,111.099,63.054,99.093,33.328z"/>
	<path fill="#C61618" d="M137.149,91.313l4.329-6.88c1.878,1.862,3.77,2.794,5.675,2.794c0.027,0,0.054,0,0.081,0
		c1.905-0.027,3.362-0.657,4.37-1.889c1.007-1.235,1.511-2.948,1.511-5.139V33.328h9.35v46.917c0,4.681-1.408,8.405-4.226,11.167
		c-2.818,2.764-6.214,4.145-10.188,4.145C144.078,95.557,140.443,94.142,137.149,91.313z M153.524,24.468
		c-1.17-1.17-1.756-2.559-1.756-4.165s0.585-2.994,1.756-4.165s2.566-1.756,4.184-1.756c1.62,0,3.014,0.585,4.184,1.756
		c1.17,1.17,1.756,2.559,1.756,4.165s-0.585,2.994-1.756,4.165c-1.17,1.17-2.566,1.756-4.184,1.756
		C156.089,26.223,154.694,25.638,153.524,24.468z"/>
	<path fill="#C61618" d="M219.869,77.836V15.892h9.35v25.357c3.675-5.717,8.5-8.574,14.475-8.574c5.976,0,11.079,2.08,15.312,6.241
		c4.233,4.157,6.349,9.653,6.349,16.482c0,6.833-2.103,12.39-6.309,16.67c-4.206,4.28-9.113,6.421-14.72,6.421
		c-5.607,0-10.643-2.451-15.108-7.35v6.696h-9.348V77.836z M232.916,45.214c-2.573,2.807-3.859,6.316-3.859,10.531
		s1.286,7.67,3.859,10.368c2.573,2.699,5.697,4.046,9.372,4.046c3.675,0,6.88-1.334,9.617-4.004
		c2.735-2.672,4.103-6.125,4.103-10.368s-1.341-7.766-4.022-10.573c-2.681-2.807-5.886-4.21-9.617-4.21
		C238.64,41.004,235.489,42.407,232.916,45.214z"/>
	<path fill="#C61618" d="M207.886,71.849c4.467-4.428,6.7-9.847,6.7-16.268s-2.233-11.842-6.7-16.268
		c-4.464-4.428-10.045-6.639-16.738-6.639c-6.693,0-12.267,2.211-16.718,6.639c-4.455,4.428-6.68,9.847-6.68,16.268
		s2.225,11.842,6.68,16.268c4.451,4.428,10.024,6.639,16.718,6.639c3.041,0,5.841-0.481,8.423-1.394l5.78,9.964l5.49-3.169
		l-5.663-9.759C206.116,73.443,207.027,72.701,207.886,71.849z M181.069,66.089c-2.647-2.712-3.968-6.214-3.968-10.508
		s1.32-7.796,3.968-10.508c2.643-2.712,6.003-4.069,10.08-4.069s7.442,1.358,10.099,4.069c2.658,2.712,3.988,6.214,3.988,10.508
		s-1.331,7.796-3.988,10.508c-2.658,2.715-6.023,4.069-10.099,4.069S183.712,68.805,181.069,66.089z"/>
	
		<rect x="201.76" y="90.062" transform="matrix(0.5 0.866 -0.866 0.5 190.5973 -137.3741)" fill="#010202" width="25.02" height="12.631"/>
</g>
</svg>
