<?xml version="1.0" encoding="utf-8"?>
<!-- Generator: Adobe Illustrator 17.0.0, SVG Export Plug-In . SVG Version: 6.00 Build 0)  -->
<!DOCTYPE svg PUBLIC "-//W3C//DTD SVG 1.1//EN" "http://www.w3.org/Graphics/SVG/1.1/DTD/svg11.dtd">
<svg version="1.1" id="Calque_1" xmlns="http://www.w3.org/2000/svg" xmlns:xlink="http://www.w3.org/1999/xlink" x="0px" y="0px"
	 width="141.73px" height="70.87px" viewBox="0 0 141.73 70.87" enable-background="new 0 0 141.73 70.87" xml:space="preserve">
<g>
	<path fill="#C61618" d="M2.834,48.023V23.304h5.193v4.445c0.741-1.491,1.863-2.665,3.368-3.523
		c1.504-0.856,3.126-1.285,4.864-1.285c3.901,0,6.546,1.587,7.937,4.762c2.449-3.175,5.496-4.762,9.139-4.762
		c2.782,0,5.034,0.85,6.758,2.551c1.724,1.701,2.585,4.161,2.585,7.382v15.149h-5.193V34.416c0-4.566-1.89-6.849-5.669-6.849
		c-1.769,0-3.311,0.565-4.626,1.695c-1.315,1.13-2.003,2.787-2.064,4.972v13.788h-5.193V34.416c0-2.366-0.42-4.099-1.259-5.199
		c-0.839-1.1-2.158-1.65-3.957-1.65s-3.364,0.595-4.694,1.786s-1.996,2.939-1.996,5.244v13.425H2.834z"/>
	<path fill="#C61618" d="M46.556,23.304h5.579l7.393,18.21l7.37-18.21h5.579L60.503,52.672c-0.711,1.603-1.735,2.869-3.073,3.799
		c-1.338,0.93-2.808,1.395-4.411,1.395c-2.268,0-4.309-0.816-6.123-2.449l2.358-4.241c1.089,1.028,2.211,1.542,3.368,1.542
		s2.101-0.42,2.835-1.259c0.733-0.839,1.1-1.75,1.1-2.733C56.557,48.287,53.224,39.813,46.556,23.304z"/>
	<path fill="#C61618" d="M67.692,55.508l2.404-3.821c1.043,1.034,2.094,1.552,3.152,1.552c0.015,0,0.03,0,0.045,0
		c1.058-0.015,1.867-0.365,2.427-1.049c0.559-0.686,0.839-1.637,0.839-2.854V23.304h5.193v26.057c0,2.6-0.782,4.668-2.347,6.202
		c-1.565,1.535-3.451,2.302-5.658,2.302S69.521,57.079,67.692,55.508z M76.786,18.383c-0.65-0.65-0.975-1.421-0.975-2.313
		c0-0.892,0.325-1.663,0.975-2.313c0.65-0.65,1.425-0.975,2.324-0.975c0.9,0,1.674,0.325,2.324,0.975
		c0.65,0.65,0.975,1.421,0.975,2.313c0,0.892-0.325,1.663-0.975,2.313c-0.65,0.65-1.425,0.975-2.324,0.975
		C78.211,19.358,77.436,19.033,76.786,18.383z"/>
	<path fill="#C61618" d="M113.633,48.023V13.62h5.193v14.083c2.041-3.175,4.721-4.762,8.039-4.762c3.319,0,6.153,1.155,8.504,3.466
		c2.351,2.309,3.526,5.361,3.526,9.154c0,3.795-1.168,6.881-3.504,9.258s-5.061,3.566-8.175,3.566s-5.911-1.361-8.391-4.082v3.719
		H113.633z M120.879,29.905c-1.429,1.559-2.143,3.508-2.143,5.849c0,2.341,0.714,4.26,2.143,5.758
		c1.429,1.499,3.164,2.247,5.205,2.247c2.041,0,3.821-0.741,5.341-2.224c1.519-1.484,2.279-3.402,2.279-5.758
		s-0.745-4.313-2.234-5.872c-1.489-1.559-3.269-2.338-5.341-2.338C124.058,27.567,122.308,28.346,120.879,29.905z"/>
	<path fill="#C61618" d="M106.978,44.698c2.481-2.459,3.721-5.469,3.721-9.035s-1.24-6.577-3.721-9.035
		c-2.479-2.459-5.579-3.687-9.296-3.687c-3.717,0-6.813,1.228-9.285,3.687c-2.474,2.459-3.71,5.469-3.71,9.035
		s1.236,6.577,3.71,9.035c2.472,2.459,5.567,3.687,9.285,3.687c1.689,0,3.244-0.267,4.678-0.774l3.21,5.534l3.049-1.76l-3.145-5.42
		C105.995,45.583,106.501,45.171,106.978,44.698z M92.084,41.499c-1.47-1.506-2.204-3.451-2.204-5.836s0.733-4.33,2.204-5.836
		c1.468-1.506,3.334-2.26,5.598-2.26c2.264,0,4.133,0.754,5.609,2.26c1.476,1.506,2.215,3.451,2.215,5.836s-0.739,4.33-2.215,5.836
		c-1.476,1.508-3.345,2.26-5.609,2.26C95.418,43.759,93.552,43.007,92.084,41.499z"/>
	
		<rect x="103.577" y="54.81" transform="matrix(-0.5 -0.866 0.866 -0.5 115.283 183.194)" fill="#010202" width="13.896" height="7.015"/>
</g>
</svg>
